<?xml version="1.0" encoding="UTF-8" standalone="no"?>
<!DOCTYPE svg PUBLIC "-//W3C//DTD SVG 1.1//EN" "http://www.w3.org/Graphics/SVG/1.1/DTD/svg11.dtd">
<svg version="1.1" xmlns="http://www.w3.org/2000/svg" xmlns:xlink="http://www.w3.org/1999/xlink" preserveAspectRatio="xMidYMid meet" viewBox="0 0 150 150" width="45" height="45"><defs><path d="M77.64 3.66L78.75 4.37L79.68 5.3L80.39 6.42L80.84 7.68L81 9.05L80.84 10.43L80.39 11.69L79.68 12.81L78.75 13.74L77.72 14.4L77.72 24.77L78.77 24.77L78.77 24.78L116.09 24.78L116.46 24.78L116.82 24.81L117.18 24.84L117.54 24.89L117.89 24.96L118.23 25.03L118.57 25.13L118.91 25.23L119.24 25.35L119.56 25.48L119.88 25.62L120.19 25.77L120.49 25.93L120.78 26.11L121.07 26.3L121.35 26.49L121.63 26.7L121.89 26.92L122.14 27.15L122.39 27.38L122.63 27.63L122.86 27.89L123.07 28.15L123.28 28.42L123.48 28.7L123.67 28.99L123.84 29.29L124.01 29.59L124.16 29.9L124.3 30.22L124.43 30.54L124.55 30.87L124.65 31.2L124.74 31.54L124.82 31.89L124.88 32.24L124.93 32.59L124.97 32.95L124.99 33.32L125 33.68L125 115.87L124.99 116.23L124.97 116.6L124.93 116.96L124.88 117.31L124.82 117.66L124.74 118.01L124.65 118.35L124.55 118.68L124.43 119.01L124.3 119.34L124.16 119.65L124.01 119.96L123.84 120.26L123.67 120.56L123.48 120.85L123.28 121.13L123.07 121.4L122.86 121.66L122.63 121.92L122.39 122.17L122.14 122.4L121.89 122.63L121.63 122.85L121.35 123.06L121.07 123.25L120.78 123.44L120.49 123.62L120.19 123.78L119.88 123.93L119.56 124.08L119.24 124.2L118.91 124.32L118.57 124.43L118.23 124.52L117.89 124.59L117.54 124.66L117.18 124.71L116.82 124.75L116.46 124.77L116.09 124.78L33.91 124.78L33.54 124.77L33.18 124.75L32.82 124.71L32.46 124.66L32.11 124.59L31.77 124.52L31.43 124.43L31.09 124.32L30.76 124.2L30.44 124.08L30.12 123.93L29.81 123.78L29.51 123.62L29.22 123.44L28.93 123.25L28.65 123.06L28.37 122.85L28.11 122.63L27.86 122.4L27.61 122.17L27.37 121.92L27.14 121.66L26.93 121.4L26.72 121.13L26.52 120.85L26.33 120.56L26.16 120.26L25.99 119.96L25.84 119.65L25.7 119.34L25.57 119.01L25.45 118.68L25.35 118.35L25.26 118.01L25.18 117.66L25.12 117.31L25.07 116.96L25.03 116.6L25.01 116.23L25 115.87L25 33.68L25.01 33.32L25.03 32.95L25.07 32.59L25.12 32.24L25.18 31.89L25.26 31.54L25.35 31.2L25.45 30.87L25.57 30.54L25.7 30.22L25.84 29.9L25.99 29.59L26.16 29.29L26.33 28.99L26.52 28.7L26.72 28.42L26.93 28.15L27.14 27.89L27.37 27.63L27.61 27.38L27.86 27.15L28.11 26.92L28.37 26.7L28.65 26.49L28.93 26.3L29.22 26.11L29.51 25.93L29.81 25.77L30.12 25.62L30.44 25.48L30.76 25.35L31.09 25.23L31.43 25.13L31.77 25.03L32.11 24.96L32.46 24.89L32.82 24.84L33.18 24.81L33.54 24.78L33.91 24.78L71.55 24.78L71.55 24.77L72.28 24.77L72.28 14.4L71.25 13.74L70.32 12.81L69.61 11.69L69.16 10.43L69 9.05L69.16 7.68L69.61 6.42L70.32 5.3L71.25 4.37L72.36 3.66L73.62 3.21L75 3.05L76.38 3.21L77.64 3.66ZM36.86 28.78L36.52 28.8L36.19 28.84L35.87 28.88L35.54 28.94L35.23 29.01L34.91 29.1L34.61 29.19L34.3 29.3L34.01 29.42L33.71 29.55L33.43 29.69L33.15 29.84L32.88 30L32.61 30.18L32.36 30.36L32.1 30.55L31.86 30.75L31.63 30.96L31.4 31.18L31.18 31.4L30.97 31.64L30.77 31.88L30.58 32.13L30.4 32.39L30.23 32.65L30.07 32.93L29.91 33.2L29.77 33.49L29.64 33.78L29.53 34.08L29.42 34.38L29.32 34.69L29.24 35L29.17 35.32L29.11 35.64L29.06 35.97L29.03 36.3L29.01 36.63L29 36.97L29 112.58L29.01 112.92L29.03 113.25L29.06 113.58L29.11 113.91L29.17 114.23L29.24 114.55L29.32 114.86L29.42 115.17L29.53 115.47L29.64 115.77L29.77 116.06L29.91 116.35L30.07 116.63L30.23 116.9L30.4 117.16L30.58 117.42L30.77 117.67L30.97 117.91L31.18 118.15L31.4 118.38L31.63 118.59L31.86 118.8L32.1 119L32.36 119.19L32.61 119.38L32.88 119.55L33.15 119.71L33.43 119.86L33.71 120L34.01 120.13L34.3 120.25L34.61 120.36L34.91 120.45L35.23 120.54L35.54 120.61L35.87 120.67L36.19 120.71L36.52 120.75L36.86 120.77L37.2 120.78L112.8 120.78L113.14 120.77L113.48 120.75L113.81 120.71L114.13 120.67L114.46 120.61L114.77 120.54L115.09 120.45L115.39 120.36L115.7 120.25L115.99 120.13L116.29 120L116.57 119.86L116.85 119.71L117.12 119.55L117.39 119.38L117.64 119.19L117.9 119L118.14 118.8L118.37 118.59L118.6 118.38L118.82 118.15L119.03 117.91L119.23 117.67L119.42 117.42L119.6 117.16L119.77 116.9L119.93 116.63L120.09 116.35L120.23 116.06L120.36 115.77L120.47 115.47L120.58 115.17L120.68 114.86L120.76 114.55L120.83 114.23L120.89 113.91L120.94 113.58L120.97 113.25L120.99 112.92L121 112.58L121 36.97L120.99 36.63L120.97 36.3L120.94 35.97L120.89 35.64L120.83 35.32L120.76 35L120.68 34.69L120.58 34.38L120.47 34.08L120.36 33.78L120.23 33.49L120.09 33.2L119.93 32.93L119.77 32.65L119.6 32.39L119.42 32.13L119.23 31.88L119.03 31.64L118.82 31.4L118.6 31.18L118.37 30.96L118.14 30.75L117.9 30.55L117.64 30.36L117.39 30.18L117.12 30L116.85 29.84L116.57 29.69L116.29 29.55L115.99 29.42L115.7 29.3L115.39 29.19L115.09 29.1L114.77 29.01L114.46 28.94L114.13 28.88L113.81 28.84L113.48 28.8L113.14 28.78L112.8 28.78L37.2 28.78L36.86 28.78ZM77.66 44.89L78.96 45.04L80.25 45.23L81.52 45.49L82.77 45.79L83.99 46.15L85.2 46.56L86.38 47.01L87.54 47.52L88.67 48.07L89.77 48.67L90.85 49.31L91.9 49.99L92.91 50.72L93.9 51.48L94.85 52.29L95.76 53.13L96.64 54.01L97.49 54.93L98.29 55.88L99.06 56.86L99.79 57.88L100.47 58.92L101.11 60L101.71 61.11L102.26 62.24L102.76 63.39L103.22 64.58L103.63 65.78L103.98 67.01L104.29 68.26L104.54 69.53L104.74 70.82L104.88 72.12L104.97 73.44L105 74.78L104.97 76.11L104.88 77.43L104.74 78.74L104.54 80.02L104.29 81.29L103.98 82.54L103.63 83.77L103.22 84.97L102.76 86.16L102.26 87.31L101.71 88.45L101.11 89.55L100.47 90.63L99.79 91.67L99.06 92.69L98.29 93.67L97.49 94.62L96.64 95.54L95.76 96.42L94.85 97.26L93.9 98.07L92.91 98.84L91.9 99.56L90.85 100.25L89.77 100.89L88.67 101.48L87.54 102.03L86.38 102.54L85.2 102.99L83.99 103.4L82.77 103.76L81.52 104.06L80.25 104.32L78.96 104.52L77.66 104.66L76.34 104.75L75 104.78L73.66 104.75L72.34 104.66L71.04 104.52L69.75 104.32L68.48 104.06L67.23 103.76L66.01 103.4L64.8 102.99L63.62 102.54L62.46 102.03L61.33 101.48L60.23 100.89L59.15 100.25L58.1 99.56L57.09 98.84L56.1 98.07L55.15 97.26L54.24 96.42L53.36 95.54L52.51 94.62L51.71 93.67L50.94 92.69L50.21 91.67L49.53 90.63L48.89 89.55L48.29 88.45L47.74 87.31L47.24 86.16L46.78 84.97L46.37 83.77L46.02 82.54L45.71 81.29L45.46 80.02L45.26 78.74L45.12 77.43L45.03 76.11L45 74.78L45.03 73.44L45.12 72.12L45.26 70.82L45.46 69.53L45.71 68.26L46.02 67.01L46.37 65.78L46.78 64.58L47.24 63.39L47.74 62.24L48.29 61.11L48.89 60L49.53 58.92L50.21 57.88L50.94 56.86L51.71 55.88L52.51 54.93L53.36 54.01L54.24 53.13L55.15 52.29L56.1 51.48L57.09 50.72L58.1 49.99L59.15 49.31L60.23 48.67L61.33 48.07L62.46 47.52L63.62 47.01L64.8 46.56L66.01 46.15L67.23 45.79L68.48 45.49L69.75 45.23L71.04 45.04L72.34 44.89L73.66 44.8L75 44.78L76.34 44.8L77.66 44.89ZM72.37 48.4L71.09 48.56L69.82 48.78L68.57 49.06L67.35 49.4L66.15 49.79L64.98 50.24L63.83 50.74L62.72 51.29L61.63 51.9L60.57 52.55L59.55 53.25L58.57 53.99L57.62 54.78L56.71 55.61L55.83 56.48L55 57.39L54.21 58.34L53.47 59.33L52.77 60.35L52.12 61.4L51.52 62.49L50.96 63.61L50.46 64.75L50.02 65.93L49.62 67.13L49.29 68.35L49.01 69.59L48.79 70.86L48.63 72.15L48.53 73.45L48.5 74.78L48.53 76.1L48.63 77.4L48.79 78.69L49.01 79.96L49.29 81.2L49.62 82.43L50.02 83.62L50.46 84.8L50.96 85.94L51.52 87.06L52.12 88.15L52.77 89.2L53.47 90.22L54.21 91.21L55 92.16L55.83 93.07L56.71 93.94L57.62 94.77L58.57 95.56L59.55 96.31L60.57 97L61.63 97.66L62.72 98.26L63.83 98.81L64.98 99.31L66.15 99.76L67.35 100.15L68.57 100.49L69.82 100.77L71.09 100.99L72.37 101.15L73.68 101.24L75 101.28L76.32 101.24L77.63 101.15L78.91 100.99L80.18 100.77L81.43 100.49L82.65 100.15L83.85 99.76L85.02 99.31L86.17 98.81L87.28 98.26L88.37 97.66L89.43 97L90.45 96.31L91.43 95.56L92.38 94.77L93.29 93.94L94.17 93.07L95 92.16L95.79 91.21L96.53 90.22L97.23 89.2L97.88 88.15L98.48 87.06L99.04 85.94L99.54 84.8L99.98 83.62L100.38 82.43L100.71 81.2L100.99 79.96L101.21 78.69L101.37 77.4L101.47 76.1L101.5 74.78L101.47 73.45L101.37 72.15L101.21 70.86L100.99 69.59L100.71 68.35L100.38 67.13L99.98 65.93L99.54 64.75L99.04 63.61L98.48 62.49L97.88 61.4L97.23 60.35L96.53 59.33L95.79 58.34L95 57.39L94.17 56.48L93.29 55.61L92.38 54.78L91.43 53.99L90.45 53.25L89.43 52.55L88.37 51.9L87.28 51.29L86.17 50.74L85.02 50.24L83.85 49.79L82.65 49.4L81.43 49.06L80.18 48.78L78.91 48.56L77.63 48.4L76.32 48.31L75 48.28L73.68 48.31L72.37 48.4ZM64.53 64.11L65.8 64.52L66.99 65.07L68.11 65.75L69.13 66.55L70.04 67.47L70.85 68.49L71.53 69.61L72.08 70.8L72.49 72.07L72.74 73.4L72.82 74.78L72.74 76.15L72.49 77.48L72.08 78.75L71.53 79.94L70.85 81.06L70.04 82.08L69.13 83L68.11 83.8L66.99 84.49L65.8 85.03L64.53 85.44L63.2 85.69L61.82 85.78L60.44 85.69L59.12 85.44L57.85 85.03L56.65 84.49L55.54 83.8L54.52 83L53.6 82.08L52.79 81.06L52.11 79.94L51.56 78.75L51.16 77.48L50.91 76.15L50.82 74.78L50.91 73.4L51.16 72.07L51.56 70.8L52.11 69.61L52.79 68.49L53.6 67.47L54.52 66.55L55.54 65.75L56.65 65.07L57.85 64.52L59.12 64.11L60.44 63.86L61.82 63.78L63.2 63.86L64.53 64.11ZM91.25 64.11L92.52 64.52L93.71 65.07L94.83 65.75L95.85 66.55L96.77 67.47L97.57 68.49L98.25 69.61L98.8 70.8L99.21 72.07L99.46 73.4L99.54 74.78L99.46 76.15L99.21 77.48L98.8 78.75L98.25 79.94L97.57 81.06L96.77 82.08L95.85 83L94.83 83.8L93.71 84.49L92.52 85.03L91.25 85.44L89.92 85.69L88.54 85.78L87.16 85.69L85.84 85.44L84.57 85.03L83.37 84.49L82.26 83.8L81.24 83L80.32 82.08L79.51 81.06L78.83 79.94L78.28 78.75L77.88 77.48L77.63 76.15L77.54 74.78L77.63 73.4L77.88 72.07L78.28 70.8L78.83 69.61L79.51 68.49L80.32 67.47L81.24 66.55L82.26 65.75L83.37 65.07L84.57 64.52L85.84 64.11L87.16 63.86L88.54 63.78L89.92 63.86L91.25 64.11ZM73.64 5.96L72.97 6.42L72.53 6.71L71.78 7.83L71.5 9.19L71.78 10.55L72.53 11.66L73.64 12.41L75 12.69L76.36 12.41L77.47 11.66L78.22 10.55L78.5 9.19L78.22 7.83L77.47 6.71L76.36 5.96L75 5.69L73.64 5.96L73.64 5.96ZM76.36 5.96L76.36 5.96L77.47 6.71L76.36 5.96Z" id="a13AEsJ5WU"></path></defs><g><g><g><use xlink:href="#a13AEsJ5WU" opacity="1" fill="#fafafa" fill-opacity="1"></use></g></g></g></svg>